<?xml version="1.0" encoding="utf-8" standalone="yes"?>
<svg xmlns="http://www.w3.org/2000/svg" xmlns:xlink="http://www.w3.org/1999/xlink" version="1.1" width="88" height="66">
	<defs />
	<g>
		<g transform="translate(1.889764,1.888294)">
			<path d="M36.22614,11.11969 L36.36914,12.4442 L36.54814,13.77008 L36.79727,15.08819 L37.08357,16.37827 L39.32598,24.57302 L41.69207,31.83024 L41.6904,31.85134 L41.70226,31.86236 L45.78247,45.17669 L45.77365,45.26887 L45.82026,45.31969 L47.14257,51.25827 L47.13081,51.32535 L47.16304,51.36483 L47.4653,53.21827 L47.44514,53.30415 L47.48483,53.38299 L47.56032,54.4042 L47.52599,54.47528 L47.56546,54.54362 L47.56546,56.62404 L47.54866,56.66457 L47.5642,56.69386 L47.5264,57.71517 L47.50362,57.76483 L47.52126,57.8021 L47.48346,58.25596 L47.43906,58.34226 L47.46425,58.40956 L47.38877,58.86341 L47.32557,58.96483 L47.34793,59.04976 L47.25974,59.37365 L47.19979,59.73344 L47.14992,59.81344 L47.16924,59.88095 L47.05585,60.3348 L47.00189,60.40767 L47.01543,60.47391 L46.90205,60.81438 L46.79234,60.94089 L46.79969,61.06173 L46.75916,61.14289 L46.71286,61.259 L46.71265,61.25921 L46.63727,61.44809 L46.51947,61.56892 L46.52388,61.59937 L46.4484,61.78856 L46.3999,61.83832 L46.39486,61.88 L46.28147,62.03128 L46.2316,62.06089 L46.23297,62.08304 L46.15748,62.23433 L46.05785,62.32084 L46.03055,62.42289 L45.94499,62.50856 L45.93082,62.53691 L45.83118,62.62341 L45.80388,62.72546 L45.65271,62.87674 L45.51223,62.93501 L45.42152,63.16756 L45.23255,63.31885 L45.13407,63.3474 L45.10037,63.41565 L44.8736,63.56704 L44.76031,63.64262 L44.64693,63.71832 L44.54205,63.73911 L44.53365,63.75612 L44.42026,63.83181 L44.31538,63.8526 L44.30698,63.86961 L44.1936,63.9453 L44.15402,63.95317 L44.08284,63.9769 L44.04703,63.97438 L44.03685,63.97638 L43.96935,64.0526 L43.85606,64.09039 L43.70236,64.07948 L43.68808,64.1012 L43.6126,64.139 L43.53606,64.14446 L43.45229,64.20661 L43.3011,64.24451 L43.28336,64.23948 L43.22562,64.28231 L43.07444,64.32011 L42.88368,64.26562 L42.61554,64.37669 L41.74667,64.37669 L41.52913,64.25113 L41.28777,64.32011 L41.13659,64.28231 L41.06824,64.2317 L41.02331,64.24451 L41.00546,64.24 L40.99738,64.24168 L40.95286,64.22688 L40.87223,64.20661 L40.79927,64.15255 L40.73291,64.16609 L40.61953,64.12819 L40.61942,64.12819 L40.50614,64.09039 L40.47801,64.06604 L40.45039,64.07076 L39.7326,63.80598 L39.63643,63.71717 L39.54068,63.72284 L39.22184,63.56326 L38.82782,63.39885 L38.70625,63.23958 L38.50625,63.22656 L38.23664,63.04651 L37.89407,62.85942 L37.86793,62.82698 L37.82667,62.82079 L37.44893,62.59381 L37.39853,62.50289 L37.261,62.46498 L36.92094,62.20021 L36.91706,62.19055 L36.90688,62.18908 L35.81123,61.31916 L35.76504,61.2359 L35.69617,61.21995 L35.12945,60.6904 L35.11244,60.65302 L35.08263,60.64504 L34.51591,60.07769 L34.50131,60.04231 L34.4736,60.03391 L33.90688,59.42877 L33.88399,59.36798 L33.82688,59.33754 L33.29795,58.69449 L33.29155,58.65606 L33.25554,58.64105 L32.76441,57.99811 L32.75444,57.96063 L32.72787,57.94856 L31.59444,56.35989 L31.5726,56.2652 L31.49543,56.20588 L30.93543,55.23381 L30.33543,54.22016 L30.32105,54.11927 L30.25858,54.07664 L29.76745,53.05533 L29.76347,52.98352 L29.72095,52.95055 L27.9453,48.60063 L27.94562,48.53995 L27.91097,48.51013 L26.85312,45.4841 L26.85711,45.41312 L26.819,45.37606 L25.95748,42.33848 L25.29071,40.22436 L23.49522,34.83139 L21.97627,30.86257 L20.27622,26.97743 L19.17879,24.77974 L18.08063,22.76431 L16.91643,20.8337 L15.68074,18.97785 L14.32955,17.14971 L12.91675,15.37249 L11.44,13.74971 L10.64609,12.95465 L9.786457,12.20158 L9.779842,12.18205 L9.759685,12.17764 L9.432651,11.88011 L9.170918,11.69669 L8.849133,11.48199 L8.834121,11.45953 L8.813753,11.45774 L8.521785,11.25312 L8.228452,11.09302 L7.911391,10.93428 L7.596116,10.79087 L7.249449,10.66457 L6.926824,10.54709 L6.568189,10.45732 L6.491444,10.40042 L6.384777,10.40042 L6.342152,10.37585 L6.324514,10.37837 L6.289134,10.3642 L6.228137,10.38163 L6.151811,10.36252 L6.019108,10.36252 L6.013753,10.36357 L6.008504,10.36252 L5.96357,10.36252 L5.962415,10.36357 L5.816903,10.39276 L5.710236,10.41953 L5.55916,10.45732 L5.32021,10.51706 L5.213229,10.57659 L5.148242,10.62866 L5.11811,10.63738 L5.109711,10.64577 L5.101627,10.66478 L5.058058,10.69743 L5.00168,10.75391 L4.959685,10.77134 L4.950446,10.77827 L4.930814,10.78331 L4.861942,10.81186 L4.84378,10.8253 L4.79937,10.92955 L4.648294,11.04305 L4.648084,11.04305 L4.616693,11.06677 L4.610394,11.11885 L4.593911,11.14079 L4.586142,11.16997 L4.530184,11.22604 L4.497113,11.27013 L4.470026,11.28619 L4.464882,11.29134 L4.460998,11.31675 L4.379423,11.4189 L4.378898,11.44892 L4.291654,11.59444 L3.975118,12.19307 L3.951811,12.21228 L3.952126,12.23528 L3.661942,12.75171 L3.492388,13.14782 L3.299948,13.66142 L3.132179,14.19874 L2.953911,14.80536 L2.600315,16.15108 L2.392441,17.26079 L2.214593,18.43643 L1.925144,21.15391 L1.889764,22.60609 L1.889764,24.18352 L1.925459,25.6485 L2.063832,27.13869 L2.316221,28.61848 L2.306037,28.64599 L2.324199,28.66919 L2.462677,29.63969 L2.694488,30.60126 L2.976063,31.55297 L3.298268,32.55643 L3.64105,33.48326 L4.069606,34.4484 L4.070131,34.46971 L4.083045,34.47947 L4.498688,35.46299 L4.508976,36.90929 L3.493543,37.93932 L2.047139,37.94961 L1.017218,36.93417 L0.6074541,35.96462 L0.1617848,34.96053 L0.1689239,34.89291 L0.1166404,34.84945 L-0.2612074,33.82824 L-0.2592126,33.77638 L-0.288084,33.75024 L-0.6281365,32.69113 L-0.6259318,32.66394 L-0.6409449,32.64966 L-0.9430971,31.62845 L-0.9376378,31.57701 L-0.968189,31.53512 L-1.232651,30.43811 L-1.209239,30.35874 L-1.266352,30.26215 L-1.413333,29.23139 L-1.674016,27.70299 L-1.657008,27.62803 L-1.692809,27.5601 L-1.843884,25.93365 L-1.813333,25.86719 L-1.851444,25.80483 L-1.889239,24.25407 L-1.880315,24.23087 L-1.889764,24.20798 L-1.889764,22.58152 L-1.878845,22.56252 L-1.889239,22.53554 L-1.851444,20.98467 L-1.814068,20.92336 L-1.841365,20.83055 L-1.539108,17.9936 L-1.515905,17.96179 L-1.528504,17.91108 L-1.339528,16.66289 L-1.32,16.63843 L-1.328504,16.5978 L-1.101837,15.3873 L-1.060578,15.33921 L-1.072126,15.2548 L-0.6942782,13.81743 L-0.6761155,13.79916 L-0.67979,13.76525 L-0.4908136,13.1222 L-0.479895,13.11181 L-0.4816798,13.09176 L-0.2927034,12.48661 L-0.256168,12.45302 L-0.2584777,12.38677 L-0.03181102,11.78163 L0,11.75549 L0.000629921,11.70079 L0.2272966,11.17123 L0.3018373,11.11538 L0.3169554,10.98929 L0.6469291,10.40189 L0.9739633,9.783307 L1.014278,9.758005 L1.023622,9.695224 L1.099738,9.568294 L1.142782,9.48189 L1.287979,9.385932 L1.357165,9.146562 L1.489239,8.981313 L1.585512,8.852809 L1.651129,8.824777 L1.741417,8.673911 L1.753911,8.666982 L1.76084,8.650289 L1.912021,8.499002 L2.030866,8.467087 L2.227717,8.134173 L2.378793,8.020787 L2.422467,7.988031 L2.47874,7.931654 L2.507822,7.923885 L2.529869,7.907297 L2.596326,7.899212 L2.68105,7.756011 L2.807559,7.660997 L2.974383,7.527349 L3.114121,7.505932 L3.237165,7.350866 L3.577218,7.161785 L3.732808,7.164305 L3.800945,7.085564 L3.952126,7.009869 L4.003045,7.012913 L4.036955,6.980052 L4.188032,6.942152 L4.229082,6.948242 L4.339213,6.866562 L4.490289,6.828766 L4.641365,6.790866 L4.64147,6.790866 L4.943622,6.715275 L4.984462,6.726929 L5.031496,6.695433 L5.220367,6.657638 L5.282415,6.678635 L5.283675,6.677375 L5.434751,6.63958 L5.533648,6.654278 L5.591391,6.620892 L5.742572,6.620892 L5.792336,6.64147 L5.893648,6.582992 L6.195906,6.582992 L6.344042,6.64441 L6.384777,6.620892 L6.535853,6.620892 L6.548452,6.626142 L6.566929,6.619843 L6.755801,6.657638 L6.757376,6.658688 L6.83811,6.658688 L6.912651,6.689554 L6.994751,6.677375 L7.145827,6.715275 L7.231076,6.797796 L7.457323,6.795065 L7.485879,6.790866 L7.500788,6.794541 L7.540682,6.794121 L7.610289,6.822048 L7.939213,6.904357 L8.004199,6.967245 L8.126929,6.96189 L8.958005,7.264462 L9.001995,7.316956 L9.094278,7.320105 L9.509921,7.509291 L9.529239,7.536273 L9.573018,7.539423 L9.950866,7.728609 L9.968504,7.755381 L10.01071,7.759895 L10.42625,7.986772 L10.47654,8.069291 L10.60504,8.097848 L10.96588,8.350657 L11.28745,8.565354 L11.29648,8.583727 L11.32294,8.589606 L11.70068,8.854383 L11.74677,8.953385 L11.88819,9.004305 L12.28966,9.369763 L13.18362,10.15297 L13.21848,10.22362 L13.27549,10.23895 L14.14436,11.10898 L14.16535,11.1599 L14.20504,11.17249 L15.75402,12.87465 L15.7768,12.93806 L15.83559,12.9706 L17.30898,14.82404 L17.3136,14.85522 L17.3494,14.87675 L18.7473,16.76798 L18.75223,16.81155 L18.80053,16.84389 L20.08504,18.77291 L20.08756,18.81281 L20.13039,18.84441 L21.33932,20.84913 L21.34005,20.88829 L21.38047,20.92095 L22.51391,23.00137 L22.51307,23.03339 L22.54509,23.0611 L23.67853,25.3306 L23.6758,25.37575 L23.71906,25.41732 L25.45701,29.38898 L25.45239,29.43066 L25.4906,29.47108 L27.03958,33.51832 L27.03339,33.55727 L27.06772,33.59685 L28.88105,39.04367 L28.87821,39.05774 L28.89029,39.07212 L29.57039,41.22824 L29.56473,41.25396 L29.58614,41.28105 L30.43948,44.28966 L31.46299,47.21764 L33.19843,51.46877 L33.62971,52.36567 L34.19244,53.31633 L34.19255,53.32903 L34.20357,53.33543 L34.72409,54.23885 L35.78604,55.72745 L36.2378,56.31895 L36.7074,56.88987 L37.2127,57.42961 L37.7327,57.95013 L38.22152,58.40683 L39.2526,59.22562 L39.49281,59.4127 L39.74121,59.56179 L40.12115,59.76924 L40.16158,59.83559 L40.26457,59.85606 L40.45208,59.9812 L40.73638,60.09984 L40.7853,60.14908 L40.8547,60.15402 L41.13911,60.29638 L41.72976,60.51423 L41.81575,60.543 L41.81596,60.543 L41.86068,60.5579 L41.9411,60.57806 L41.96084,60.59717 L42.36367,60.59717 L42.38341,60.57806 L42.53449,60.54026 L42.58834,60.54824 L42.66205,60.499 L42.77543,60.42341 L42.88871,60.34772 L42.93187,60.31895 L42.97858,60.20588 L43.12756,60.05669 L43.12746,60.04588 L43.20304,59.85669 L43.27864,59.66761 L43.31717,59.63727 L43.31601,59.62047 L43.34142,59.54425 L43.34278,59.52441 L43.35843,59.49312 L43.4064,59.34908 L43.48399,59.03843 L43.54719,58.6589 L43.60305,58.59108 L43.58792,58.47255 L43.67612,58.14898 L43.72346,57.86478 L43.75108,57.5326 L43.78593,56.59108 L43.78593,54.61354 L43.72179,53.7452 L43.44179,52.02771 L42.14709,46.21312 L38.0926,32.98289 L35.71864,25.70163 L35.72756,25.65963 L35.6926,25.61459 L33.42572,17.33092 L33.43906,17.28011 L33.40368,17.24158 L33.10142,15.8799 L33.10698,15.84829 L33.08934,15.82131 L32.82488,14.42184 L32.84042,14.37753 L32.80903,14.32367 L32.62016,12.9242 L32.62929,12.90205 L32.61407,12.87423 L32.46299,11.47475 L32.48231,11.43108 L32.4548,11.37375 L32.37922,9.974174 L32.40094,9.931338 L32.37648,9.872336 L32.37648,7.035486 L32.41197,6.973963 L32.38268,6.88294 L32.49596,5.48336 L32.52871,5.435905 L32.50992,5.36126 L32.88766,2.789186 L32.91611,2.753281 L32.90425,2.693648 L33.16536,1.386667 L33.35255,0.3750131 L34.57932,-1.062467 L36.43748,-0.7187402 L37.06898,1.062362 L36.88011,2.083675 L36.87087,2.097953 L36.87496,2.110131 L36.62016,3.385722 L36.25827,5.848714 L36.15601,7.111601 L36.15601,9.820997 Z" fill="#000000" fill-rule="evenodd" />
			<path d="M51.50058,39.90583 L51.50593,39.90688 L51.59612,39.90688 L51.63696,39.88367 L51.80074,39.8632 L51.81911,39.842 L51.97018,39.76641 L52.0336,39.77018 L52.03653,39.76577 L52.07139,39.74856 L52.10698,39.69533 L52.14331,39.67108 L52.15906,39.65291 L52.20494,39.62992 L52.22037,39.61963 L52.22625,39.61921 L52.25522,39.60472 L52.29585,39.54404 L52.3389,39.51528 L52.35643,39.47297 L52.36147,39.45323 L52.3684,39.44399 L52.38572,39.4021 L52.44189,39.34593 L52.48609,39.28693 L52.56105,39.13669 L52.59349,39.11528 L52.59937,39.06415 L52.78824,38.72367 L52.79759,38.71811 L52.79937,38.70383 L52.85785,38.60147 L52.91212,38.43843 L53.00273,38.35811 L53.01449,38.19107 L53.1304,37.95895 L53.20494,37.7726 L53.24315,37.61932 L53.3136,37.30205 L53.37796,37.01197 L53.43853,36.64872 L53.57774,35.4989 L53.64903,34.32137 L53.72326,32.79853 L53.75979,31.41081 L53.75979,31.20567 L53.80011,31.13596 L53.79759,31.12997 L53.79759,31.01649 L53.84693,30.93092 L53.83538,30.90299 L53.83538,30.78961 L53.91139,30.65795 L53.89438,30.41953 L53.93218,30.30604 L53.93985,30.29932 L53.93218,30.19254 L53.96987,30.07926 L53.96987,30.07916 L54.00766,29.96567 L54.09806,29.86142 L54.09806,29.74268 L54.13585,29.71255 L54.13585,29.66698 L54.17365,29.63685 L54.17365,29.59139 L54.23969,29.53869 L54.23969,29.46646 L54.31528,29.42278 L54.31528,29.35297 L54.43895,29.28158 L54.46362,29.18929 L54.50142,29.1515 L54.53911,29.1137 L54.56598,29.10257 L54.57701,29.0758 L54.6148,29.038 L54.62215,29.03601 L54.6526,28.96231 L54.6904,28.92451 L54.80021,28.89501 L54.80368,28.88672 L54.84147,28.84882 L54.89732,28.83381 L54.93144,28.7747 L54.94142,28.7747 L55.00693,28.66121 L55.11444,28.66121 L55.15811,28.58562 L55.39633,28.58562 L55.60693,28.41764 L55.6506,28.42761 L55.75801,28.34194 L55.84609,28.36199 L55.87129,28.34194 L55.93008,28.35538 L55.94688,28.34194 L56.04693,28.36473 L56.10299,28.33239 L56.11296,28.33239 L56.17848,28.29459 L56.89638,28.29459 L57.04788,28.35738 L57.20735,28.32042 L57.5915,28.38446 L57.93659,28.41585 L58.07244,28.48714 L58.22415,28.46467 L58.67748,28.57806 L58.69911,28.59895 L58.73837,28.59444 L59.18394,28.72189 L60.43927,28.95969 L60.98457,29.02793 L61.03601,29.06688 L61.12094,29.05008 L61.56179,29.13837 L61.98047,29.16462 L63.32042,29.16462 L63.32567,29.16357 L63.32882,29.16462 L63.39737,29.16462 L63.42908,29.14583 L63.69354,29.10793 L63.7348,29.12451 L63.8631,29.07307 L63.91475,29.08053 L63.96735,29.03486 L64.19402,28.95916 L64.29344,28.97942 L64.33554,28.97869 L64.39769,28.93995 L64.42362,28.90488 L64.47948,28.87129 L64.5053,28.84609 L64.5537,28.82667 L64.6125,28.79139 L64.80148,28.6779 L65.17921,28.45092 L65.23916,28.442 L65.33638,28.31632 L65.38205,28.20588 L65.51003,28.0778 L65.57984,27.99391 L65.67506,27.85092 L65.82184,27.77827 L65.85848,27.68966 L65.86394,27.66173 L65.8799,27.63779 L65.91087,27.56284 L65.93732,27.53638 L65.9641,27.47381 L65.98394,27.459 L65.9852,27.42635 L66.19118,26.97942 L66.47538,26.26814 L66.74174,25.60147 L66.94195,24.89984 L66.97701,24.86593 L66.97312,24.80094 L67.65323,22.83401 L67.73208,22.76567 L67.74856,22.53144 L67.78625,22.45606 L67.78625,22.45596 L67.82404,22.38026 L67.89155,22.33564 L67.89512,22.33155 L67.89964,22.26688 L67.93743,22.19118 L68.01113,22.14247 L68.01302,22.11538 L68.05082,22.03979 L68.11822,21.99528 L68.17774,21.85123 L68.25333,21.77554 L68.3177,21.75821 L68.40441,21.54866 L68.44221,21.51076 L68.51769,21.43517 L68.5178,21.43517 L68.5556,21.39738 L68.68189,21.36346 L68.68326,21.36105 L68.69082,21.36105 L68.74961,21.3453 L68.78216,21.30772 L68.783,21.3073 L68.95675,21.04756 L69.07014,20.97197 L69.08189,20.97123 L69.08441,20.96735 L69.16,20.92945 L69.26624,20.92189 L69.31107,20.85386 L69.38656,20.81606 L69.79182,20.78709 L69.81617,20.77092 L69.84136,20.78352 L69.90247,20.77911 L70.11927,20.65396 L70.13921,20.65396 L70.27034,20.57827 L70.91265,20.57827 L71.0042,20.61617 L71.02593,20.61617 L71.02656,20.61638 L71.02719,20.61617 L71.11832,20.65396 L71.13932,20.65396 L71.37249,20.75055 L71.75853,20.77816 L71.83412,20.81606 L71.85281,20.84441 L71.9853,20.85386 L72.06078,20.89165 L72.07842,20.91842 L72.36095,21.0441 L72.4316,21.14121 L72.59507,21.16871 L72.82111,21.31013 L73.04305,21.42121 L73.08871,21.4905 L73.19958,21.50908 L73.50184,21.69827 L73.56168,21.81103 L73.73008,21.86614 L73.99454,22.09312 L74.259,22.32 L74.26897,22.34824 L74.30604,22.36179 L74.75948,22.77785 L74.76525,22.79622 L74.78866,22.80535 L75.18877,23.18845 L75.60851,22.09396 L75.6273,22.07874 L75.6273,22.04693 L78.12074,16.03275 L79.62037,14.88284 L81.36609,15.60651 L81.61208,17.48021 L79.12872,23.47013 L78.02425,26.34971 L78.05585,26.38677 L78.06992,26.43024 L78.10971,26.45291 L79.16756,27.81459 L79.17344,27.85743 L79.22205,27.8883 L80.20431,29.28787 L80.20724,29.32095 L80.24346,29.34593 L81.15024,30.74551 L81.15223,30.78352 L81.19244,30.81386 L82.06142,32.28903 L82.06184,32.33313 L82.10677,32.3706 L82.90015,33.88357 L82.8989,33.91559 L82.92535,33.93344 L83.68095,35.4843 L83.68514,35.55391 L83.73407,35.60368 L84.37638,37.19234 L84.37144,37.22782 L84.40325,37.26289 L85.4611,40.21323 L85.44955,40.27716 L85.5032,40.34583 L85.69208,41.02667 L85.68903,41.03853 L85.69879,41.05145 L85.88766,41.77018 L85.86646,41.84787 L85.9241,41.94026 L86.03748,42.62111 L86.02048,42.66646 L86.05155,42.72294 L86.12714,43.40378 L86.20263,44.08462 L86.20053,44.08934 L86.20389,44.09554 L86.27937,44.81417 L86.24231,44.89732 L86.28976,45.01176 L86.28976,45.6926 L86.26373,45.73774 L86.28651,45.80347 L86.21091,47.08955 L86.18552,47.12808 L86.20263,47.18709 L86.16494,47.52756 L86.15759,47.53753 L86.1619,47.55318 L86.12409,47.85575 L86.07443,47.92137 L86.09375,48.03119 L86.01817,48.37165 L85.98248,48.4106 L85.99055,48.48073 L85.91496,48.74551 L85.88714,48.7725 L85.89082,48.82383 L85.77743,49.16431 L85.72284,49.2127 L85.72168,49.31097 L85.63916,49.50383 L85.55076,49.76945 L85.43937,49.86824 L85.4484,50.0168 L85.31622,50.28147 L85.18279,50.58226 L85.09428,50.66635 L85.07643,50.78698 L84.96315,50.97606 L84.86257,51.03202 L84.81848,51.18436 L84.71853,51.3094 L84.61292,51.46814 L84.54058,51.51664 L84.51633,51.60042 L84.36515,51.7895 L84.30856,51.81166 L84.23003,51.92966 L84.22583,51.94541 L84.20693,51.96431 L84.15958,52.03549 L84.08788,52.08357 L84.07475,52.09669 L84.05785,52.10373 L83.91171,52.20168 L83.76798,52.4631 L83.66068,52.54898 L83.54583,52.66404 L83.38615,52.70688 L83.35696,52.77753 L83.16808,52.96661 L83.13848,52.97459 L82.99307,53.06194 L82.90813,53.06341 L82.8041,53.25113 L82.61523,53.36462 L82.57596,53.3705 L82.56063,53.39612 L82.2485,53.56966 L82.0863,53.66719 L82.01764,53.66835 L81.91675,53.74919 L81.84872,53.75958 L81.81575,53.80157 L81.62688,53.87717 L81.55307,53.87633 L81.33365,54.06677 L81.10699,54.14236 L81.10688,54.14236 L80.88021,54.21806 L80.80997,54.20367 L80.79569,54.21764 L80.66079,54.2716 L80.65302,54.27843 L80.63433,54.28221 L80.60672,54.29323 L80.59066,54.29092 L80.46415,54.31633 L80.32557,54.28893 L80.17176,54.40966 L79.95979,54.44 L79.82195,54.46761 L79.78436,54.46016 L79.76189,54.47864 L79.53522,54.51643 L79.37543,54.47948 L79.33113,54.49785 L79.30856,54.51643 L79.27119,54.52262 L79.22414,54.54216 L79.15434,54.54216 L79.08189,54.55423 L79.02972,54.54216 L78.99748,54.54216 L78.97596,54.52977 L78.92231,54.51727 L78.77081,54.58005 L78.54415,54.58005 L78.42698,54.51244 L78.35528,54.54216 L78.17628,54.54216 L78.17313,54.5432 L78.16788,54.54216 L78.09081,54.54216 L78.04997,54.51853 L77.98415,54.50541 L77.89544,54.44598 L77.71969,54.50541 L77.56074,54.4736 L77.3641,54.44073 L77.13754,54.40294 L76.98058,54.30499 L76.85029,54.33155 L76.62362,54.25586 L76.39696,54.18026 L76.34425,54.13449 L76.29259,54.14194 L76.10373,54.06635 L75.91476,53.99066 L75.85491,53.93218 L75.77145,53.92619 L75.61554,53.84808 L75.49921,53.80157 L75.33984,53.64598 L75.31034,53.65018 L75.12147,53.5746 L75.08788,53.54184 L75.02037,53.52221 L74.8315,53.37092 L74.82236,53.3474 L74.64262,53.29522 L74.45376,53.14394 L74.43307,53.09092 L74.32189,53.02415 L74.30961,53.00746 L74.29806,53.00441 L74.14687,52.85312 L74.11769,52.78247 L73.95801,52.73964 L73.80693,52.58835 L73.65575,52.43706 L73.60577,52.31622 L73.51653,52.28126 L73.36536,52.09218 L73.2272,51.91916 L73.04924,51.7053 L73.01134,51.58342 L72.90688,51.51013 L72.64242,51.09396 L72.6399,51.03454 L72.57774,50.98436 L72.36966,50.60242 L72.16294,50.25743 L72.16094,50.13344 L72.03916,50.01207 L71.86226,49.58688 L71.68536,49.19727 L71.68189,49.09229 L71.61312,49.01302 L71.49313,48.65271 L71.3453,48.32724 L71.33491,48.01796 L71.202,47.85638 L71.13879,47.47675 L71.04368,47.09607 L71.04682,47.07465 L71.0357,47.06268 L70.92231,46.57092 L70.94919,46.4105 L70.87769,46.26425 L70.84241,45.69806 L70.73292,44.63864 L70.75811,44.58236 L70.72399,44.5073 L70.6862,43.37249 L70.70026,43.34614 L70.68514,43.3096 L70.68514,42.2505 L70.70089,42.22331 L70.6863,42.18436 L70.76189,40.02835 L70.80746,39.95549 L70.77753,39.84273 L71.0421,37.8758 L71.05407,37.86026 L71.04798,37.83506 L71.35023,35.90604 L71.37974,35.8694 L71.36829,35.80787 L71.78384,33.84095 L71.80567,33.81669 L71.79926,33.77386 L72.55486,30.74782 L72.59265,30.70877 L72.58636,30.63633 L73.69827,27.11706 L72.98667,26.31265 L72.19013,25.54992 L71.77606,25.16976 L71.53313,24.96126 L71.37617,24.82656 L71.27139,24.76095 L71.04893,24.64966 L71.03139,24.6295 L70.5621,25.98688 L70.34971,26.73134 L70.27465,26.82593 L70.28735,26.91381 L69.9852,27.67034 L69.68295,28.42688 L69.63906,28.46142 L69.6442,28.51685 L69.42856,28.98467 L69.32525,29.22593 L69.17071,29.3769 L69.16094,29.52966 L69.00986,29.75664 L68.8252,29.88053 L68.821,29.94572 L68.78657,29.99738 L68.77396,30.04462 L68.71727,30.10142 L68.66982,30.1726 L68.59832,30.22047 L68.58509,30.2338 L68.56788,30.24095 L68.56504,30.24284 L68.54929,30.33417 L68.36042,30.56116 L68.28347,30.60158 L68.25774,30.64021 L68.24504,30.68767 L68.18824,30.74457 L68.14089,30.81564 L68.0695,30.86352 L68.05617,30.87685 L68.03895,30.88399 L67.67444,31.1284 L67.64063,31.25501 L67.53323,31.36252 L67.50636,31.40861 L67.24189,31.5599 L67.22037,31.56262 L67.12547,31.69081 L66.55885,32.03128 L66.36997,32.14467 L66.20966,32.16861 L66.181,32.22037 L66.11359,32.26089 L66.09932,32.27906 L66.05134,32.29827 L65.99213,32.33386 L65.94498,32.34089 L65.91045,32.35475 L65.85648,32.35412 L65.5453,32.40063 L65.44399,32.4841 L65.39056,32.54436 L65.35727,32.55548 L65.32998,32.57795 L65.24966,32.59139 L65.2169,32.60231 L65.07926,32.65732 L65.00956,32.65648 L64.97491,32.69564 L64.74824,32.77124 L64.43769,32.74929 L64.2652,32.82068 L64.22866,32.84945 L64.17869,32.85659 L64.15003,32.86845 L64.09575,32.86845 L64.01617,32.87979 L63.87885,32.9073 L63.68788,32.86961 L63.50782,32.94415 L61.92105,32.94415 L61.86299,32.91066 L61.80304,32.94037 L61.19853,32.90257 L61.05522,32.83244 L60.94551,32.8695 L60.44661,32.76955 L59.91076,32.70257 L59.84609,32.66583 L59.7937,32.68409 L58.3958,32.41932 L58.30541,32.3601 L58.22783,32.37953 L57.72777,32.23654 L57.52021,32.18457 L57.5009,32.91958 L57.49008,32.94394 L57.49932,32.96189 L57.42383,34.51276 L57.41785,34.52546 L57.42257,34.53491 L57.34698,35.7832 L57.32053,35.83759 L57.3368,35.89606 L57.18562,37.14436 L57.15685,37.18268 L57.17365,37.2275 L57.09816,37.68147 L57.06457,37.73533 L57.07885,37.78058 L57.00336,38.12105 L56.92777,38.46142 L56.90982,38.48703 L56.91632,38.50982 L56.84084,38.81239 L56.74562,38.941 L56.76221,39.05564 L56.61113,39.43391 L56.54247,39.50436 L56.54688,39.57711 L56.45554,39.76011 L56.38478,39.97281 L56.23223,40.14877 L56.23307,40.31255 L56.0862,40.56987 L55.9241,40.86205 L55.79129,41.12798 L55.63108,41.26709 L55.61312,41.41659 L55.38646,41.71926 L55.24231,41.80473 L55.21103,41.92168 L55.05984,42.07297 L55.03381,42.08378 L55.03128,42.08756 L54.80725,42.2378 L54.77197,42.30929 L54.70877,42.3515 L54.6821,42.45124 L54.60651,42.52693 L54.53481,42.55664 L54.50751,42.61197 L54.39412,42.68756 L54.35192,42.69596 L54.31863,42.76326 L54.20525,42.83885 L54.0611,42.8674 L54.0021,42.95695 L53.85092,43.03255 L53.73124,43.04115 L53.66205,43.14604 L53.51097,43.22173 L53.25575,43.24 L53.04829,43.44073 L52.96735,43.461 L52.92325,43.4757 L52.91181,43.47486 L52.89722,43.47853 L52.83717,43.4696 L52.83255,43.4693 L52.78383,43.51643 L52.63276,43.55423 L52.49155,43.53323 L52.4085,43.59612 L52.17522,43.6253 L52.05375,43.64966 L51.89827,43.59706 L51.68273,43.68641 L50.70047,43.68641 L50.55107,43.60011 L50.3894,43.66069 L50.16273,43.62278 L50.13018,43.60242 L50.10268,43.61176 L49.72493,43.53617 L49.6631,43.48178 L49.55234,43.49302 L48.79675,43.26614 L48.76137,43.22856 L48.71076,43.23801 L48.06845,43.01102 L48.05124,42.99559 L48.03391,42.99843 L47.4294,42.77155 L47.35916,42.70593 L47.28819,42.71181 L46.66919,42.42016 L46.08871,42.16588 L46.00682,42.08063 L45.91958,42.08158 L45.31507,41.7411 L45.27192,41.68609 L45.21964,41.68357 L44.69071,41.3432 L44.67937,41.32682 L44.66436,41.32588 L44.09774,40.94761 L44.0716,40.90845 L44.02562,40.89711 L42.33039,39.64766 L43.83475,43.31034 L43.83464,43.35297 L43.85932,43.37344 L44.87937,46.1347 L44.87223,46.31947 L44.9599,46.41932 L44.98908,46.56525 L45.01575,46.67212 L44.99223,46.82961 L45.01575,46.86131 L45.09134,47.16388 L45.07202,47.23129 L45.07202,47.31906 L45.03055,47.41911 L45.14761,47.62173 L45.14761,47.9621 L44.59412,49.29837 L44.56735,49.3094 L44.55632,49.33617 L44.52966,49.34719 L44.51853,49.37407 L44.45501,49.40042 L44.43612,49.43958 L44.41407,49.44462 L44.39832,49.47738 L44.37638,49.48242 L44.36052,49.51527 L43.95317,49.60819 L43.93407,49.61617 L43.90047,49.67433 L43.79359,49.67433 L43.18225,49.92756 L42.95559,49.92756 L42.84179,49.86184 L42.76178,49.88011 L42.75339,49.87339 L42.72399,49.88011 L42.71559,49.87339 L42.68619,49.88011 L42.60735,49.81722 L42.49733,49.84231 L42.44368,49.79947 L42.42173,49.80452 L42.25848,49.67433 L42.01071,49.67433 L41.85806,49.40987 L41.58079,49.33543 L41.55685,49.31139 L41.5052,49.29753 L41.39181,49.18415 L41.37711,49.14866 L41.3495,49.14026 L40.78278,48.53512 L40.73722,48.41386 L40.64977,48.37648 L40.33848,47.96095 L39.99192,47.54457 L39.94866,47.40535 L39.85418,47.35664 L39.55149,46.88515 L39.25187,46.48514 L39.21554,46.34288 L39.12315,46.28893 L38.82089,45.75937 L38.81775,45.73428 L38.80126,45.7242 L37.8568,43.98425 L37.84935,43.91349 L37.80577,43.88305 L36.97459,42.1053 L36.97323,42.07559 L36.95202,42.05501 L35.36525,38.38604 L35.37134,38.33333 L35.32347,38.28105 L34.26562,35.3685 L34.27359,35.32367 L34.24,35.29291 L33.29554,32.30478 L33.29911,32.26352 L33.27674,32.24157 L32.44556,29.25344 L32.45208,29.20032 L32.42142,29.15653 L31.74131,26.0927 L31.75391,26.05281 L31.72682,26.02089 L30.21564,17.69932 L30.22646,17.64913 L30.20284,17.61869 L29.10719,9.637586 L29.11496,9.607874 L29.10121,9.589082 L28.98782,8.567769 L28.98814,8.566824 L28.98772,8.566299 L28.3832,3.08168 L28.40651,3.00168 L28.37333,2.949186 L28.25995,0.0744357 L28.76042,-1.282625 L30.07381,-1.888294 L31.43087,-1.387822 L32.03654,-0.0744357 L32.1473,2.734803 L32.74425,8.150867 L32.8547,9.145932 L33.94152,17.06331 L35.43906,25.30961 L36.09995,28.28766 L36.90877,31.1957 L37.13596,31.91422 L37.20399,31.91422 L37.39643,31.76525 L37.44147,31.77102 L37.47255,31.74625 L37.49449,31.75129 L37.54814,31.70845 L37.63549,31.7284 L37.72535,31.67674 L37.85932,31.71286 L37.89312,31.6989 L37.91517,31.70803 L37.93092,31.6989 L37.96872,31.6989 L38.27003,31.82373 L38.60546,31.91422 L38.9136,31.91422 L38.9705,32.0127 L39.12178,32.05354 L39.61292,32.43181 L39.61648,32.44053 L39.62824,32.44378 L40.15717,32.85984 L40.17911,32.91475 L40.25375,32.94121 L41.00934,33.62205 L41.02058,33.65669 L41.05596,33.66551 L42.02121,34.59612 L43.58783,35.87937 L46.23297,37.82877 L46.75171,38.17491 L47.21806,38.47507 L47.69186,38.74194 L48.20955,38.96872 L48.22425,38.98866 L48.2568,38.99024 L48.82982,39.26016 L49.34415,39.45323 L49.92651,39.65911 L50.55465,39.84777 L50.65596,39.86803 L50.81459,39.89974 L50.85722,39.90688 L51.49533,39.90688 ZM76.20766,31.72021 L75.47433,34.65722 L75.07654,36.54016 L74.78478,38.4021 L74.53585,40.25344 L74.46467,42.28231 L74.46467,43.27832 L74.49921,44.31517 L74.60577,45.34709 L74.59202,45.39328 L74.61217,45.42363 L74.64021,45.87328 L74.71475,46.19664 L74.82394,46.63433 L74.80462,46.70173 L74.85459,46.78184 L74.88934,46.99076 L74.97575,47.18089 L74.96494,47.29144 L75.04798,47.36514 L75.16777,47.72514 L75.3157,48.05092 L75.31234,48.08514 L75.33974,48.10604 L75.4758,48.43297 L75.63149,48.69281 L75.63863,48.741 L75.67003,48.76021 L75.86593,49.11979 L76.03171,49.38058 L76.1431,49.51443 L76.14677,49.53585 L76.16693,49.54373 L76.31811,49.73281 L76.31821,49.73302 L76.40409,49.84042 L76.48084,49.91727 L76.48105,49.91737 L76.63213,50.06866 L76.64273,50.10824 L76.821,50.18225 L76.89796,50.25932 L76.97564,50.32147 L77.09323,50.36861 L77.1262,50.4106 L77.19433,50.421 L77.21113,50.43444 L77.23664,50.43297 L77.39328,50.51139 L77.50887,50.55769 L77.64577,50.6126 L77.82005,50.67076 L77.90572,50.69932 L77.98624,50.71276 L78.21291,50.75066 L78.23212,50.76262 L78.26762,50.76262 L78.27297,50.76158 L78.27822,50.76262 L78.35528,50.76262 L78.42772,50.79265 L78.46184,50.79947 L78.47749,50.81323 L78.4948,50.82037 L78.5158,50.81691 L78.54415,50.80053 L78.61396,50.80053 L78.68641,50.78845 L78.71864,50.80053 L78.72095,50.80053 L78.7263,50.79947 L78.73155,50.80053 L78.77081,50.80053 L78.80756,50.81575 L78.85448,50.82509 L78.91318,50.78845 L78.96882,50.77922 L78.99748,50.76262 L79.06803,50.76262 L79.10688,50.75612 L79.26866,50.72378 L79.31475,50.73932 L79.31843,50.73785 L79.37218,50.70604 L79.63538,50.66845 L79.67696,50.64052 L79.68378,50.63286 L79.69302,50.62982 L79.7221,50.61029 L79.79549,50.59559 L79.91045,50.55727 L80.08997,50.49733 L80.11454,50.47328 L80.14005,50.4273 L80.19611,50.3936 L80.22173,50.36861 L80.26971,50.3494 L80.32893,50.31381 L80.36242,50.30877 L80.38352,50.28221 L80.66225,50.12714 L80.68284,50.10656 L80.73575,50.08462 L80.85785,50.01123 L80.86687,50.01113 L80.87171,49.99307 L81.06058,49.80399 L81.11308,49.78215 L81.12325,49.77606 L81.16473,49.71381 L81.20473,49.69397 L81.21627,49.66446 L81.34425,49.562 L81.40063,49.42572 L81.47758,49.34866 L81.51244,49.3051 L81.61806,49.14646 L81.70079,49.10551 L81.71465,49.01418 L81.77995,48.9325 L81.87937,48.70835 L81.91223,48.68441 L81.91601,48.63076 L82.00714,48.44829 L82.07811,48.23517 L82.14246,48.16095 L82.13375,48.0884 L82.21627,47.89575 L82.29176,47.66908 L82.34079,47.49733 L82.38467,47.29921 L82.40966,47.09953 L82.44073,46.81911 L82.51024,45.63696 L82.51024,45.11055 L82.44505,44.49071 L82.37061,43.82068 L82.3009,43.1916 L82.21018,42.64672 L82.0462,42.02299 L81.87979,41.42331 L80.85806,38.57354 L80.25491,37.08158 L79.54089,35.61596 L78.78131,34.16745 L77.95675,32.76745 L77.09061,31.43045 L76.54488,30.65291 Z" fill="#000000" fill-rule="evenodd" />
		</g>
	</g>
</svg>